<?xml version="1.0" encoding="utf-8"?>
<!-- Generator: Adobe Illustrator 26.0.3, SVG Export Plug-In . SVG Version: 6.00 Build 0)  -->
<svg version="1.1" id="Layer_1" xmlns="http://www.w3.org/2000/svg" xmlns:xlink="http://www.w3.org/1999/xlink" x="0px" y="0px"
	 viewBox="0 0 102.41 98.04" style="enable-background:new 0 0 102.41 98.04;" xml:space="preserve">
<style type="text/css">
	.st0{fill:#FFFFFF;}
	.st1{fill:#A41E22;}
</style>
<g>
	<path class="st0" d="M6.41,24.26c0,0-8.97,27.31,9.93,34.18s29.61-3.12,29.61-3.12s-9.67,0.41-13.86-10.61s-6.96-10.37-15.85-12.33
		S6.41,24.26,6.41,24.26z"/>
	<path d="M6.41,24.26C2.55,38.76,3.14,56.01,20.92,59.34c8.29,2.1,17.92,1.11,24.7-4.37c0,0,0.34,0.82,0.34,0.82
		c-4.7-0.06-9.1-2.55-11.8-6.31c-1.01-1.32-1.8-2.98-2.44-4.52c-1.41-3.5-2.77-7.44-6.05-9.58c-2.88-1.7-6.32-1.96-9.53-2.8
		C11.87,31.63,7.37,28.83,6.41,24.26L6.41,24.26z M6.41,24.26c1.14,4.47,5.58,7.07,9.85,7.91c2.19,0.46,4.4,0.8,6.59,1.38
		c4.74,0.95,7.4,5.39,9.03,9.55c2.07,6.29,7.09,11.71,14.05,11.75c0,0,1.35,0,1.35,0s-1,0.82-1,0.82
		c-7.12,5.84-16.93,6.75-25.57,4.54C2.59,56.71,1.82,38.96,6.41,24.26L6.41,24.26z"/>
</g>
<polygon class="st1" points="18.48,41.41 19.96,42.64 21.81,42.12 21.09,43.91 22.16,45.51 20.24,45.38 19.05,46.89 18.58,45.03 
	16.78,44.36 18.4,43.33 "/>
<g>
	<path d="M21.99,48.48c4.29,4.79,10.88,6.65,17.09,7.2c2.13,0.19,4.26,0.14,6.4,0.17c-1.06,0.19-2.13,0.33-3.2,0.48
		C34.93,56.96,26.19,55.1,21.99,48.48L21.99,48.48z"/>
</g>
<g>
	<path class="st0" d="M62.76,1.41c0,0-28.72,1.19-28.52,21.31c0.2,20.11,13.32,26.63,13.32,26.63s-3.78-8.91,5.06-16.71
		s7.27-10.16,5.98-19.17S62.76,1.41,62.76,1.41z"/>
	<path d="M62.76,1.41C47.83,2.89,31.89,9.5,35.01,27.32c0.94,8.49,5.25,17.16,12.77,21.6c0,0-0.65,0.61-0.65,0.61
		c-1.6-4.42-0.81-9.42,1.77-13.26c0.89-1.41,2.16-2.74,3.38-3.87c2.78-2.54,5.99-5.21,6.84-9.02c0.58-3.29-0.39-6.6-0.73-9.9
		C57.78,9.12,58.82,3.92,62.76,1.41L62.76,1.41z M62.76,1.41c-3.78,2.64-4.66,7.71-3.95,12c0.34,2.21,0.79,4.4,1.02,6.65
		c0.77,4.78-2.45,8.82-5.77,11.81c-5.15,4.11-8.48,10.79-6.06,17.28c0,0,0.47,1.26,0.47,1.26l-1.12-0.65
		c-7.96-4.61-12.26-13.49-13.23-22.34C31.04,9.23,47.39,2.27,62.76,1.41L62.76,1.41z"/>
</g>
<polygon class="st1" points="50.94,18.74 50.31,20.55 51.44,22.1 49.52,22.06 48.4,23.62 47.84,21.78 46.02,21.19 47.59,20.1 
	47.58,18.18 49.11,19.34 "/>
<g>
	<path d="M45.55,24.5c-2.98,5.7-2.4,12.52-0.74,18.52c0.57,2.06,1.36,4.04,2.09,6.05c-0.55-0.92-1.05-1.88-1.58-2.82
		C42.16,39.6,40.83,30.76,45.55,24.5L45.55,24.5z"/>
</g>
<g>
	<path class="st0" d="M101.15,41.12c0,0-13.99-25.11-31.86-15.88S51.5,49.12,51.5,49.12s6.26-7.39,17.2-3s12.34,1.92,19.81-3.29
		S101.15,41.12,101.15,41.12z"/>
	<path d="M101.15,41.12C93.11,28.45,80.04,17.19,65.52,28c-7.16,4.66-12.97,12.41-13.54,21.12c0,0-0.84-0.3-0.84-0.3
		c1.63-1.74,3.64-2.92,5.82-3.7c3.84-1.34,8.07-0.88,11.79,0.59c4.46,1.83,9.75,3.75,14.12,0.71c1.89-1.15,3.67-2.52,5.54-3.76
		C92.03,40.14,97.14,38.73,101.15,41.12L101.15,41.12z M101.15,41.12c-4.06-2.19-8.98-0.69-12.49,1.88c-1.82,1.3-3.57,2.69-5.48,3.9
		c-3.92,2.84-8.98,1.78-13.14,0.16c-5.99-2.75-13.45-2.72-18.16,2.36c0,0-0.91,0.99-0.91,0.99l0.08-1.3
		c0.54-9.19,6.53-17.02,14-21.87C79.9,16.31,93.46,27.78,101.15,41.12L101.15,41.12z"/>
</g>
<polygon class="st1" points="80.36,38.36 78.45,38.61 77.58,40.32 76.75,38.59 74.86,38.29 76.25,36.97 75.95,35.07 77.64,35.98 
	79.35,35.11 79,37 "/>
<g>
	<path d="M72.78,36.14c-6.43-0.1-12.27,3.49-16.88,7.68c-1.58,1.44-2.99,3.03-4.47,4.59c0.57-0.91,1.2-1.78,1.81-2.68
		C57.78,39.9,65.07,34.74,72.78,36.14L72.78,36.14z"/>
</g>
<g>
	<path class="st0" d="M86.78,89.43c0,0,13.66-25.29-3.73-35.4s-29.69-2.17-29.69-2.17s9.59,1.31,11.77,12.89s5.02,11.44,13.42,14.94
		C86.95,83.19,86.78,89.43,86.78,89.43z"/>
	<path d="M86.78,89.43c6.36-13.58,8.84-30.66-8.08-37.09c-7.78-3.53-17.44-4.27-25.09-0.07c0,0-0.19-0.87-0.19-0.87
		c4.61,0.89,8.51,4.12,10.49,8.3c0.76,1.48,1.25,3.26,1.6,4.88c0.76,3.69,1.41,7.81,4.26,10.5c2.53,2.18,5.87,3.04,8.88,4.44
		C82.7,81.21,86.64,84.76,86.78,89.43L86.78,89.43z M86.78,89.43c-0.34-4.6-4.24-7.95-8.3-9.53c-2.07-0.84-4.19-1.57-6.24-2.53
		c-4.5-1.78-6.33-6.61-7.2-11c-0.92-6.56-4.9-12.78-11.75-14.05c0,0-1.33-0.24-1.33-0.24s1.13-0.63,1.13-0.63
		c8.04-4.48,17.86-3.64,25.97,0.06C96.28,58.17,93.9,75.78,86.78,89.43L86.78,89.43z"/>
</g>
<polygon class="st1" points="77.94,70.41 76.7,68.94 74.79,69.12 75.81,67.49 75.04,65.73 76.9,66.2 78.34,64.92 78.48,66.84 
	80.13,67.82 78.35,68.54 "/>
<g>
	<path d="M75.74,62.83c-3.37-5.48-9.54-8.47-15.54-10.11c-2.06-0.56-4.16-0.89-6.27-1.3c1.07,0,2.15,0.06,3.23,0.09
		C64.5,52.2,72.77,55.58,75.74,62.83L75.74,62.83z"/>
</g>
<g>
	<path class="st0" d="M21.03,94.89c0,0,27.56,8.16,33.87-10.94s-3.99-29.5-3.99-29.5s0.69,9.66-10.19,14.17
		c-10.89,4.51-10.16,7.26-11.86,16.21C27.16,93.78,21.03,94.89,21.03,94.89z"/>
	<path d="M21.03,94.89c14.6,3.43,31.83,2.34,34.64-15.54c1.86-8.34,0.58-17.94-5.09-24.57c0,0,0.81-0.37,0.81-0.37
		c0.08,4.7-2.28,9.17-5.96,11.98c-1.29,1.05-2.93,1.89-4.45,2.57c-3.46,1.51-7.35,2.99-9.4,6.33c-1.61,2.93-1.77,6.37-2.52,9.6
		C28.22,89.21,25.56,93.8,21.03,94.89L21.03,94.89z M21.03,94.89c4.43-1.27,6.91-5.79,7.62-10.08c0.39-2.2,0.67-4.42,1.19-6.63
		c0.81-4.77,5.17-7.55,9.28-9.31c6.23-2.25,11.5-7.43,11.33-14.39c0,0-0.04-1.35-0.04-1.35s0.85,0.98,0.85,0.98
		c6.04,6.94,7.24,16.73,5.29,25.42C53.56,97.76,35.85,99.05,21.03,94.89L21.03,94.89z"/>
</g>
<polygon class="st1" points="37.81,82.32 39,80.81 38.42,78.98 40.23,79.64 41.79,78.52 41.72,80.44 43.27,81.59 41.42,82.12 
	40.8,83.94 39.73,82.34 "/>
<g>
	<path d="M44.78,78.61c4.67-4.43,6.32-11.07,6.69-17.29c0.12-2.13,0.02-4.26-0.02-6.4c0.22,1.05,0.39,2.12,0.58,3.18
		C52.87,65.42,51.27,74.21,44.78,78.61L44.78,78.61z"/>
</g>
</svg>
