<svg id="Layer_1" data-name="Layer 1" xmlns="http://www.w3.org/2000/svg" viewBox="0 0 97.1 95.44"><defs><style>.cls-1{fill:#fff;}.cls-2{fill:#231f20;}.cls-3{fill:#a41e22;}</style></defs><path class="cls-1" d="M6.41,24.26s-9,27.31,9.94,34.19S46,55.32,46,55.32s-9.67.41-13.86-10.6-7-10.37-15.85-12.33S6.41,24.26,6.41,24.26Z" transform="translate(-4.04 -1.41)"/><path class="cls-2" d="M6.41,24.26C2.55,38.76,3.14,56,20.92,59.34c8.29,2.1,17.92,1.12,24.71-4.36l.34.82a15,15,0,0,1-11.79-6.31A20.56,20.56,0,0,1,31.74,45c-1.4-3.5-2.77-7.44-6-9.58-2.87-1.7-6.32-2-9.52-2.8-4.3-1-8.8-3.76-9.76-8.33Zm0,0c1.14,4.47,5.58,7.08,9.85,7.91,2.19.46,4.4.8,6.59,1.39,4.74.95,7.4,5.38,9,9.54C34,49.39,39,54.81,45.93,54.85h1.35l-1,.82c-7.12,5.84-16.94,6.75-25.57,4.54C2.59,56.71,1.82,39,6.41,24.26Z" transform="translate(-4.04 -1.41)"/><polygon class="cls-3" points="14.44 40 15.91 41.23 17.76 40.71 17.05 42.49 18.12 44.09 16.2 43.97 15.01 45.47 14.54 43.61 12.73 42.94 14.36 41.92 14.44 40"/><path class="cls-2" d="M22,48.48c4.28,4.8,10.88,6.65,17.08,7.2,2.13.19,4.26.14,6.4.17-1,.19-2.12.33-3.19.49C34.93,57,26.19,55.1,22,48.48Z" transform="translate(-4.04 -1.41)"/><path class="cls-1" d="M62.76,1.41S34,2.61,34.24,22.72,47.56,49.35,47.56,49.35s-3.78-8.92,5.07-16.71,7.26-10.16,6-19.17S62.76,1.41,62.76,1.41Z" transform="translate(-4.04 -1.41)"/><path class="cls-2" d="M62.76,1.41C47.83,2.89,31.89,9.5,35,27.32c.94,8.5,5.25,17.17,12.77,21.6l-.65.61a14.93,14.93,0,0,1,1.76-13.26,20.42,20.42,0,0,1,3.38-3.87c2.78-2.54,6-5.2,6.84-9,.58-3.29-.38-6.61-.72-9.91-.61-4.35.43-9.55,4.37-12.06Zm0,0c-3.78,2.64-4.66,7.72-3.95,12,.34,2.21.8,4.4,1,6.66.78,4.78-2.45,8.82-5.76,11.81C48.92,36,45.58,42.67,48,49.16l.48,1.26-1.13-.65c-8-4.61-12.26-13.48-13.23-22.34C31,9.23,47.39,2.27,62.76,1.41Z" transform="translate(-4.04 -1.41)"/><polygon class="cls-3" points="46.9 17.32 46.27 19.14 47.4 20.69 45.48 20.65 44.36 22.2 43.8 20.36 41.97 19.78 43.55 18.68 43.54 16.76 45.07 17.93 46.9 17.32"/><path class="cls-2" d="M45.55,24.5c-3,5.7-2.4,12.53-.74,18.53.58,2.06,1.36,4,2.09,6-.55-.92-1-1.87-1.57-2.82-3.17-6.66-4.5-15.5.22-21.76Z" transform="translate(-4.04 -1.41)"/><path class="cls-1" d="M101.15,41.12S87.16,16,69.29,25.24,51.5,49.12,51.5,49.12s6.26-7.39,17.2-3S81,48,88.51,42.83,101.15,41.12,101.15,41.12Z" transform="translate(-4.04 -1.41)"/><path class="cls-2" d="M101.15,41.12C93.11,28.45,80,17.19,65.52,28c-7.16,4.66-13,12.41-13.54,21.11l-.84-.3A14.55,14.55,0,0,1,57,45.11a17,17,0,0,1,11.79.59c4.46,1.82,9.76,3.74,14.12.71,1.89-1.15,3.67-2.52,5.54-3.77,3.62-2.5,8.73-3.91,12.74-1.52Zm0,0c-4.06-2.19-9-.69-12.5,1.88-1.81,1.29-3.57,2.68-5.48,3.9-3.92,2.84-9,1.78-13.14.17-6-2.75-13.45-2.73-18.16,2.36l-.92,1,.08-1.3c.54-9.19,6.52-17,14-21.87,14.87-10.94,28.43.53,36.12,13.87Z" transform="translate(-4.04 -1.41)"/><polygon class="cls-3" points="76.32 36.95 74.41 37.2 73.54 38.91 72.71 37.17 70.81 36.87 72.21 35.55 71.91 33.65 73.6 34.57 75.31 33.7 74.96 35.59 76.32 36.95"/><path class="cls-2" d="M72.78,36.14c-6.43-.1-12.26,3.49-16.87,7.68-1.58,1.44-3,3-4.47,4.59.58-.91,1.2-1.78,1.81-2.68,4.53-5.83,11.82-11,19.53-9.59Z" transform="translate(-4.04 -1.41)"/><path class="cls-1" d="M86.78,89.43S100.44,64.14,83.05,54s-29.69-2.17-29.69-2.17S63,53.17,65.12,64.75s5,11.44,13.43,14.94S86.78,89.43,86.78,89.43Z" transform="translate(-4.04 -1.41)"/><path class="cls-2" d="M86.78,89.43c6.36-13.59,8.84-30.67-8.08-37.1-7.78-3.53-17.43-4.26-25.08-.07l-.2-.87a14.94,14.94,0,0,1,10.5,8.3,20.65,20.65,0,0,1,1.59,4.88c.77,3.69,1.41,7.81,4.26,10.49,2.53,2.19,5.87,3,8.88,4.44,4,1.71,8,5.26,8.13,9.93Zm0,0c-.34-4.6-4.24-8-8.3-9.53-2.07-.84-4.18-1.57-6.24-2.53-4.5-1.77-6.32-6.61-7.2-11-.92-6.56-4.9-12.78-11.75-14L52,52.09l1.13-.63c8-4.48,17.86-3.64,26,0,17.21,6.66,14.83,24.27,7.71,37.92Z" transform="translate(-4.04 -1.41)"/><polygon class="cls-3" points="73.89 69 72.66 67.53 70.75 67.71 71.76 66.08 71 64.32 72.86 64.78 74.3 63.51 74.44 65.43 76.09 66.4 74.31 67.12 73.89 69"/><path class="cls-2" d="M75.74,62.83c-3.38-5.47-9.54-8.47-15.55-10.1-2.06-.56-4.16-.9-6.27-1.3,1.08,0,2.15,0,3.23.08,7.35.69,15.62,4.07,18.59,11.32Z" transform="translate(-4.04 -1.41)"/><path class="cls-1" d="M21,94.89S48.58,103.05,54.9,84s-4-29.5-4-29.5.69,9.66-10.2,14.17S30.55,75.88,28.86,84.83,21,94.89,21,94.89Z" transform="translate(-4.04 -1.41)"/><path class="cls-2" d="M21,94.89c14.6,3.43,31.82,2.34,34.63-15.54,1.86-8.34.59-17.94-5.09-24.57l.81-.36a14.92,14.92,0,0,1-6,12A20.3,20.3,0,0,1,41,69c-3.45,1.51-7.35,3-9.39,6.33-1.62,2.92-1.77,6.37-2.52,9.6-.84,4.32-3.5,8.91-8,10Zm0,0c4.43-1.28,6.9-5.79,7.61-10.08.39-2.2.67-4.42,1.19-6.63.81-4.77,5.17-7.55,9.28-9.31,6.22-2.25,11.49-7.42,11.32-14.39l0-1.34.86,1c6,7,7.24,16.73,5.29,25.43C53.56,97.76,35.85,99.05,21,94.89Z" transform="translate(-4.04 -1.41)"/><polygon class="cls-3" points="33.77 80.91 34.96 79.39 34.38 77.56 36.19 78.22 37.75 77.11 37.68 79.03 39.22 80.17 37.38 80.7 36.76 82.52 35.69 80.93 33.77 80.91"/><path class="cls-2" d="M44.78,78.61c4.66-4.43,6.32-11.08,6.69-17.29.12-2.14,0-4.26,0-6.41.22,1.05.39,2.12.58,3.18.84,7.33-.76,16.12-7.25,20.52Z" transform="translate(-4.04 -1.41)"/></svg>